<svg viewBox="0 0 24 24" xmlns="http://www.w3.org/2000/svg">
  <path d="M3 21C5.5 17 6 14 6 12C6 10 5 9 3 9" fill="none" stroke="currentColor" stroke-width="1.5" stroke-linecap="round"/>
  <path d="M3 9C3 7.5 4.5 6 7 6C9.5 6 10 8 10 9V15C10 17 9 21 3 21" fill="none" stroke="currentColor" stroke-width="1.5" stroke-linecap="round"/>
  <path d="M13 21C15.5 17 16 14 16 12C16 10 15 9 13 9" fill="none" stroke="currentColor" stroke-width="1.5" stroke-linecap="round"/>
  <path d="M13 9C13 7.5 14.5 6 17 6C19.5 6 20 8 20 9V15C20 17 19 21 13 21" fill="none" stroke="currentColor" stroke-width="1.5" stroke-linecap="round"/>
</svg>
